<?xml version="1.0" encoding="UTF-8"?>
<!DOCTYPE svg PUBLIC "-//W3C//DTD SVG 1.1//EN" "http://www.w3.org/Graphics/SVG/1.1/DTD/svg11.dtd">
<svg xmlns="http://www.w3.org/2000/svg" version="1.1" width="232px" height="206px" style="shape-rendering:geometricPrecision; text-rendering:geometricPrecision; image-rendering:optimizeQuality; fill-rule:evenodd; clip-rule:evenodd" xmlns:xlink="http://www.w3.org/1999/xlink">
<g><path style="opacity:0.996" fill="#275af3" d="M 62.5,-0.5 C 68.8333,-0.5 75.1667,-0.5 81.5,-0.5C 82.8684,0.471819 84.3684,1.47182 86,2.5C 86.6667,1.83333 87.3333,1.16667 88,0.5C 89.7337,1.24888 91.567,1.74888 93.5,2C 92.8333,2.33333 92.1667,2.66667 91.5,3C 93.437,3.12162 94.7703,3.95496 95.5,5.5C 85.3194,5.17265 75.3194,5.50598 65.5,6.5C 62.6085,7.78913 60.2752,9.78913 58.5,12.5C 57.8423,11.6016 57.1757,10.6016 56.5,9.5C 55.0153,10.4328 53.6819,10.0995 52.5,8.5C 53.2026,6.28428 54.5359,4.45095 56.5,3C 58.7274,2.05898 60.7274,0.892318 62.5,-0.5 Z"/></g>
<g><path style="opacity:0.995" fill="#1e53f1" d="M 81.5,-0.5 C 96.8333,-0.5 112.167,-0.5 127.5,-0.5C 126.697,0.423175 126.53,1.42317 127,2.5C 129.026,2.91473 130.526,3.91473 131.5,5.5C 119.5,5.5 107.5,5.5 95.5,5.5C 94.7703,3.95496 93.437,3.12162 91.5,3C 92.1667,2.66667 92.8333,2.33333 93.5,2C 91.567,1.74888 89.7337,1.24888 88,0.5C 87.3333,1.16667 86.6667,1.83333 86,2.5C 84.3684,1.47182 82.8684,0.471819 81.5,-0.5 Z"/></g>
<g><path style="opacity:0.995" fill="#1149f0" d="M 127.5,-0.5 C 141.833,-0.5 156.167,-0.5 170.5,-0.5C 171.09,0.765972 171.59,2.0993 172,3.5C 173.579,2.82799 174.746,3.49466 175.5,5.5C 160.833,5.5 146.167,5.5 131.5,5.5C 130.526,3.91473 129.026,2.91473 127,2.5C 126.53,1.42317 126.697,0.423175 127.5,-0.5 Z"/></g>
<g><path style="opacity:0.997" fill="#1338ee" d="M 207.5,-0.5 C 209.833,-0.5 212.167,-0.5 214.5,-0.5C 216.929,0.551166 219.262,1.8845 221.5,3.5C 221.738,5.40435 222.738,6.73769 224.5,7.5C 224.427,9.02694 225.094,10.0269 226.5,10.5C 227.2,14.7978 227.533,19.1311 227.5,23.5C 227.5,23.8333 227.5,24.1667 227.5,24.5C 225.565,25.1495 223.565,25.4828 221.5,25.5C 221.142,22.3112 220.475,19.3112 219.5,16.5C 219.34,14.847 218.674,13.5137 217.5,12.5C 217.5,10.5 216.5,9.5 214.5,9.5C 213.508,9.67158 212.842,9.33825 212.5,8.5C 212.082,7.77842 211.416,7.27842 210.5,7C 162.168,6.50001 113.834,6.33334 65.5,6.5C 75.3194,5.50598 85.3194,5.17265 95.5,5.5C 107.5,5.5 119.5,5.5 131.5,5.5C 146.167,5.5 160.833,5.5 175.5,5.5C 186.187,5.83203 196.854,5.4987 207.5,4.5C 206.975,3.80762 206.308,3.30762 205.5,3C 206.823,2.18405 207.489,1.01739 207.5,-0.5 Z"/></g>
<g><path style="opacity:0.996" fill="#0540ee" d="M 170.5,-0.5 C 182.833,-0.5 195.167,-0.5 207.5,-0.5C 207.489,1.01739 206.823,2.18405 205.5,3C 206.308,3.30762 206.975,3.80762 207.5,4.5C 196.854,5.4987 186.187,5.83203 175.5,5.5C 174.746,3.49466 173.579,2.82799 172,3.5C 171.59,2.0993 171.09,0.765972 170.5,-0.5 Z"/></g>
<g><path style="opacity:0.925" fill="#a6b5fa" d="M 221.5,3.5 C 223.262,4.26231 224.262,5.59565 224.5,7.5C 222.738,6.73769 221.738,5.40435 221.5,3.5 Z"/></g>
<g><path style="opacity:0.966" fill="#e1e8fc" d="M 65.5,6.5 C 113.834,6.33334 162.168,6.50001 210.5,7C 211.416,7.27842 212.082,7.77842 212.5,8.5C 164.195,7.34771 115.862,7.18104 67.5,8C 64.7583,9.07037 62.2583,10.5704 60,12.5C 57.1936,19.09 54.6936,25.7567 52.5,32.5C 52.1667,32.5 51.8333,32.5 51.5,32.5C 53.4404,25.6779 55.7738,19.0112 58.5,12.5C 60.2752,9.78913 62.6085,7.78913 65.5,6.5 Z"/></g>
<g><path style="opacity:0.792" fill="#bfc8fb" d="M 214.5,9.5 C 216.5,9.5 217.5,10.5 217.5,12.5C 216.167,11.8333 215.167,10.8333 214.5,9.5 Z"/></g>
<g><path style="opacity:0.737" fill="#adb8f9" d="M 224.5,7.5 C 225.906,7.97306 226.573,8.97306 226.5,10.5C 225.094,10.0269 224.427,9.02694 224.5,7.5 Z"/></g>
<g><path style="opacity:0.998" fill="#244ff1" d="M 149.5,12.5 C 149.833,13.5 150.5,14.1667 151.5,14.5C 152.338,14.8417 152.672,15.5084 152.5,16.5C 152.261,26.7451 147.261,30.4117 137.5,27.5C 132.774,23.4424 132.274,18.7757 136,13.5C 140.522,9.36969 145.022,9.03636 149.5,12.5 Z"/></g>
<g><path style="opacity:0.998" fill="#1f4af0" d="M 177.5,12.5 C 177.833,13.5 178.5,14.1667 179.5,14.5C 180.338,14.8417 180.672,15.5084 180.5,16.5C 180.261,26.7451 175.261,30.4117 165.5,27.5C 161.242,23.9722 160.409,19.6389 163,14.5C 167.589,9.61481 172.422,8.94814 177.5,12.5 Z"/></g>
<g><path style="opacity:0.004" fill="#d4dcfc" d="M 149.5,12.5 C 150.833,12.5 151.5,13.1667 151.5,14.5C 150.5,14.1667 149.833,13.5 149.5,12.5 Z"/></g>
<g><path style="opacity:0.012" fill="#d3dbfc" d="M 177.5,12.5 C 178.833,12.5 179.5,13.1667 179.5,14.5C 178.5,14.1667 177.833,13.5 177.5,12.5 Z"/></g>
<g><path style="opacity:0.998" fill="#1042ef" d="M 206.5,13.5 C 207.299,16.4299 207.632,19.4299 207.5,22.5C 205.051,28.0482 200.718,30.0482 194.5,28.5C 193.833,27.1667 192.833,26.1667 191.5,25.5C 187.871,17.022 190.705,11.6886 200,9.5C 202.617,10.2193 204.784,11.5526 206.5,13.5 Z"/></g>
<g><path style="opacity:0.996" fill="#8b9df6" d="M 226.5,10.5 C 227.931,11.7804 228.598,13.4471 228.5,15.5C 228.806,18.3854 228.473,21.0521 227.5,23.5C 227.533,19.1311 227.2,14.7978 226.5,10.5 Z"/></g>
<g><path style="opacity:0.997" fill="#3163f5" d="M 52.5,8.5 C 53.6819,10.0995 55.0153,10.4328 56.5,9.5C 57.1757,10.6016 57.8423,11.6016 58.5,12.5C 55.7738,19.0112 53.4404,25.6779 51.5,32.5C 65.3234,33.4958 79.3234,33.8291 93.5,33.5C 94.2066,35.1344 95.3732,36.4677 97,37.5C 97.4828,38.448 97.6495,39.448 97.5,40.5C 82.1667,40.5 66.8333,40.5 51.5,40.5C 51.5774,39.2502 52.244,38.4169 53.5,38C 52.1667,37.6667 50.8333,37.3333 49.5,37C 49.8333,36.6667 50.1667,36.3333 50.5,36C 47.4557,35.6411 47.1224,34.9745 49.5,34C 44.1667,33.3333 44.1667,32.6667 49.5,32C 46.8333,31.3333 46.8333,30.6667 49.5,30C 48.365,29.2506 47.365,29.4173 46.5,30.5C 44.9069,32.054 43.5735,33.7207 42.5,35.5C 44.6789,25.9513 48.0123,16.9513 52.5,8.5 Z"/></g>
<g><path style="opacity:0.996" fill="#7386f5" d="M 206.5,13.5 C 207.906,13.9731 208.573,14.9731 208.5,16.5C 208.795,18.7354 208.461,20.7354 207.5,22.5C 207.632,19.4299 207.299,16.4299 206.5,13.5 Z"/></g>
<g><path style="opacity:0.538" fill="#dadefc" d="M 180.5,16.5 C 182.952,24.2729 180.119,28.9396 172,30.5C 169.325,30.3427 167.159,29.3427 165.5,27.5C 175.261,30.4117 180.261,26.7451 180.5,16.5 Z"/></g>
<g><path style="opacity:0.508" fill="#dde1fc" d="M 152.5,16.5 C 154.228,21.1532 153.228,25.3199 149.5,29C 145.021,31.2634 141.021,30.7634 137.5,27.5C 147.261,30.4117 152.261,26.7451 152.5,16.5 Z"/></g>
<g><path style="opacity:0.776" fill="#e0e4fc" d="M 208.5,16.5 C 210.577,24.1388 207.577,28.8054 199.5,30.5C 197.578,30.1992 195.912,29.5325 194.5,28.5C 200.718,30.0482 205.051,28.0482 207.5,22.5C 208.461,20.7354 208.795,18.7354 208.5,16.5 Z"/></g>
<g><path style="opacity:0.569" fill="#dde3fd" d="M 191.5,25.5 C 192.833,26.1667 193.833,27.1667 194.5,28.5C 192.5,28.5 191.5,27.5 191.5,25.5 Z"/></g>
<g><path style="opacity:0.996" fill="#184ff1" d="M 125.5,33.5 C 151.894,32.8477 178.06,33.5144 204,35.5C 204.333,35.1667 204.667,34.8333 205,34.5C 206.214,36.0488 207.714,37.2155 209.5,38C 207.899,38.2734 206.399,38.7734 205,39.5C 203.687,38.7129 202.52,39.0462 201.5,40.5C 178.167,40.5 154.833,40.5 131.5,40.5C 130.391,39.71 129.058,39.21 127.5,39C 129.991,38.3741 129.991,37.5407 127.5,36.5C 126.271,35.7189 124.938,35.2189 123.5,35C 124.416,34.7216 125.082,34.2216 125.5,33.5 Z"/></g>
<g><path style="opacity:0.996" fill="#0c3eef" d="M 219.5,16.5 C 220.475,19.3112 221.142,22.3112 221.5,25.5C 223.565,25.4828 225.565,25.1495 227.5,24.5C 224.64,32.4146 221.973,40.4146 219.5,48.5C 217.167,47.8333 214.833,47.1667 212.5,46.5C 212.629,44.7839 212.962,43.1172 213.5,41.5C 209.702,40.5166 205.702,40.1832 201.5,40.5C 202.52,39.0462 203.687,38.7129 205,39.5C 206.399,38.7734 207.899,38.2734 209.5,38C 207.714,37.2155 206.214,36.0488 205,34.5C 204.667,34.8333 204.333,35.1667 204,35.5C 178.06,33.5144 151.894,32.8477 125.5,33.5C 114.833,33.5 104.167,33.5 93.5,33.5C 79.3234,33.8291 65.3234,33.4958 51.5,32.5C 51.8333,32.5 52.1667,32.5 52.5,32.5C 107.168,32.6667 161.834,32.5 216.5,32C 219.102,27.1902 220.102,22.0236 219.5,16.5 Z"/></g>
<g><path style="opacity:1" fill="#265af3" d="M 93.5,33.5 C 104.167,33.5 114.833,33.5 125.5,33.5C 125.082,34.2216 124.416,34.7216 123.5,35C 124.938,35.2189 126.271,35.7189 127.5,36.5C 129.991,37.5407 129.991,38.3741 127.5,39C 129.058,39.21 130.391,39.71 131.5,40.5C 120.167,40.5 108.833,40.5 97.5,40.5C 97.6495,39.448 97.4828,38.448 97,37.5C 95.3732,36.4677 94.2066,35.1344 93.5,33.5 Z"/></g>
<g><path style="opacity:0.856" fill="#fafafd" d="M 51.5,40.5 C 66.8333,40.5 82.1667,40.5 97.5,40.5C 108.833,40.5 120.167,40.5 131.5,40.5C 154.833,40.5 178.167,40.5 201.5,40.5C 205.702,40.1832 209.702,40.5166 213.5,41.5C 159.166,41.3333 104.832,41.5 50.5,42C 46.966,49.9683 43.966,58.135 41.5,66.5C 41.1667,66.5 40.8333,66.5 40.5,66.5C 42.6905,58.4271 45.1905,50.4271 48,42.5C 48.7096,41.0267 49.8762,40.3601 51.5,40.5 Z"/></g>
<g><path style="opacity:0.997" fill="#3d6cf6" d="M 51.5,40.5 C 49.8762,40.3601 48.7096,41.0267 48,42.5C 45.1905,50.4271 42.6905,58.4271 40.5,66.5C 37.7644,65.8886 35.0978,65.5552 32.5,65.5C 35.3198,55.2249 38.6531,45.2249 42.5,35.5C 43.5735,33.7207 44.9069,32.054 46.5,30.5C 47.365,29.4173 48.365,29.2506 49.5,30C 46.8333,30.6667 46.8333,31.3333 49.5,32C 44.1667,32.6667 44.1667,33.3333 49.5,34C 47.1224,34.9745 47.4557,35.6411 50.5,36C 50.1667,36.3333 49.8333,36.6667 49.5,37C 50.8333,37.3333 52.1667,37.6667 53.5,38C 52.244,38.4169 51.5774,39.2502 51.5,40.5 Z"/></g>
<g><path style="opacity:0.996" fill="#1449f0" d="M 212.5,46.5 C 214.833,47.1667 217.167,47.8333 219.5,48.5C 214.638,61.7532 209.971,75.0865 205.5,88.5C 204.596,87.791 204.263,86.791 204.5,85.5C 202.486,85.6085 200.82,84.9418 199.5,83.5C 202.867,70.7266 207.201,58.3933 212.5,46.5 Z"/></g>
<g><path style="opacity:0.99" fill="#5b7df8" d="M 32.5,65.5 C 35.0978,65.5552 37.7644,65.8886 40.5,66.5C 43.9619,67.4816 47.6286,67.815 51.5,67.5C 52.2297,69.045 53.563,69.8784 55.5,70C 54.8333,70.3333 54.1667,70.6667 53.5,71C 54.4158,71.2784 55.0825,71.7784 55.5,72.5C 61.7987,73.704 80.1321,74.0374 110.5,73.5C 85.9828,73.8362 61.6495,74.8362 37.5,76.5C 35.7549,78.0326 34.7549,80.0326 34.5,82.5C 33.596,81.791 33.2627,80.791 33.5,79.5C 29.8979,79.322 29.8979,78.322 33.5,76.5C 31.533,75.3162 29.8664,75.6495 28.5,77.5C 20.896,75.6933 12.896,74.86 4.5,75C 1.6212,73.3342 0.787864,70.8342 2,67.5C 12.1662,66.8219 22.3329,66.1552 32.5,65.5 Z"/></g>
<g><path style="opacity:0.997" fill="#3b6bf6" d="M 51.5,67.5 C 68.8365,67.3334 86.1699,67.5001 103.5,68C 102.167,68.6667 102.167,69.3333 103.5,70C 102.833,70.3333 102.167,70.6667 101.5,71C 103.5,71.3333 105.5,71.6667 107.5,72C 90.1699,72.4999 72.8365,72.6666 55.5,72.5C 55.0825,71.7784 54.4158,71.2784 53.5,71C 54.1667,70.6667 54.8333,70.3333 55.5,70C 53.563,69.8784 52.2297,69.045 51.5,67.5 Z"/></g>
<g><path style="opacity:0.546" fill="#e3e7fc" d="M 228.5,15.5 C 229.728,19.723 229.561,24.0564 228,28.5C 219.198,52.4282 210.698,76.4282 202.5,100.5C 202.167,100.5 201.833,100.5 201.5,100.5C 202.633,96.4331 203.967,92.4331 205.5,88.5C 209.971,75.0865 214.638,61.7532 219.5,48.5C 221.973,40.4146 224.64,32.4146 227.5,24.5C 227.5,24.1667 227.5,23.8333 227.5,23.5C 228.473,21.0521 228.806,18.3854 228.5,15.5 Z"/></g>
<g><path style="opacity:0.996" fill="#275df4" d="M 40.5,66.5 C 40.8333,66.5 41.1667,66.5 41.5,66.5C 65.169,66.3334 88.8357,66.5 112.5,67C 113.056,67.3826 113.389,67.8826 113.5,68.5C 114.084,71.285 113.084,72.9517 110.5,73.5C 80.1321,74.0374 61.7987,73.704 55.5,72.5C 72.8365,72.6666 90.1699,72.4999 107.5,72C 105.5,71.6667 103.5,71.3333 101.5,71C 102.167,70.6667 102.833,70.3333 103.5,70C 102.167,69.3333 102.167,68.6667 103.5,68C 86.1699,67.5001 68.8365,67.3334 51.5,67.5C 47.6286,67.815 43.9619,67.4816 40.5,66.5 Z"/></g>
<g><path style="opacity:0.698" fill="#fcfdfe" d="M 113.5,68.5 C 115.167,71.3084 114.5,73.475 111.5,75C 86.761,75.1764 62.0944,75.6764 37.5,76.5C 61.6495,74.8362 85.9828,73.8362 110.5,73.5C 113.084,72.9517 114.084,71.285 113.5,68.5 Z"/></g>
<g><path style="opacity:0.503" fill="#e9ecfd" d="M 37.5,76.5 C 36.5861,81.8529 34.9194,86.8529 32.5,91.5C 33.01,88.4606 33.6766,85.4606 34.5,82.5C 34.7549,80.0326 35.7549,78.0326 37.5,76.5 Z"/></g>
<g><path style="opacity:0.998" fill="#3462f4" d="M 162.5,85.5 C 161.596,86.209 161.263,87.209 161.5,88.5C 162.873,88.3433 164.207,88.51 165.5,89C 165.167,89.3333 164.833,89.6667 164.5,90C 159.167,90.3333 153.833,90.6667 148.5,91C 153.351,91.1745 158.018,91.6745 162.5,92.5C 156.158,92.3338 149.825,92.5005 143.5,93C 139.386,93.115 135.719,94.2817 132.5,96.5C 126.721,97.7208 121.387,100.054 116.5,103.5C 116.119,102.069 115.119,101.236 113.5,101C 113.833,100.667 114.167,100.333 114.5,100C 112.866,99.5065 111.199,99.3398 109.5,99.5C 125.25,87.4705 142.917,82.8039 162.5,85.5 Z"/></g>
<g><path style="opacity:0.997" fill="#2c57f3" d="M 199.5,83.5 C 200.82,84.9418 202.486,85.6085 204.5,85.5C 204.263,86.791 204.596,87.791 205.5,88.5C 203.967,92.4331 202.633,96.4331 201.5,100.5C 202.273,105.04 201.273,105.374 198.5,101.5C 200.289,100.377 200.622,99.0436 199.5,97.5C 198.064,101.136 196.397,101.303 194.5,98C 192.115,97.4436 189.782,97.6103 187.5,98.5C 183.366,96.7169 179.033,95.7169 174.5,95.5C 172.901,95.7678 171.568,95.4345 170.5,94.5C 168.095,93.2318 165.428,92.5651 162.5,92.5C 158.018,91.6745 153.351,91.1745 148.5,91C 153.833,90.6667 159.167,90.3333 164.5,90C 164.833,89.6667 165.167,89.3333 165.5,89C 164.207,88.51 162.873,88.3433 161.5,88.5C 161.263,87.209 161.596,86.209 162.5,85.5C 173.94,85.6938 184.607,88.6938 194.5,94.5C 195.993,90.6571 197.66,86.9904 199.5,83.5 Z"/></g>
<g><path style="opacity:0.356" fill="#f2f4fd" d="M 162.5,92.5 C 165.428,92.5651 168.095,93.2318 170.5,94.5C 157.696,92.7735 145.029,93.4402 132.5,96.5C 135.719,94.2817 139.386,93.115 143.5,93C 149.825,92.5005 156.158,92.3338 162.5,92.5 Z"/></g>
<g><path style="opacity:0.996" fill="#8f93f8" d="M 174.5,95.5 C 179.033,95.7169 183.366,96.7169 187.5,98.5C 187.557,99.609 187.89,100.609 188.5,101.5C 183.765,99.4608 179.099,97.4608 174.5,95.5 Z"/></g>
<g><path style="opacity:0.52" fill="#edf0fd" d="M 32.5,91.5 C 31.3227,96.5427 29.9893,101.543 28.5,106.5C 27.9033,106.265 27.5699,105.765 27.5,105C 28.7133,101.934 29.5466,98.7671 30,95.5C 30.2004,93.6803 31.0337,92.347 32.5,91.5 Z"/></g>
<g><path style="opacity:0.997" fill="#527cf9" d="M 34.5,82.5 C 33.6766,85.4606 33.01,88.4606 32.5,91.5C 31.0337,92.347 30.2004,93.6803 30,95.5C 29.5466,98.7671 28.7133,101.934 27.5,105C 27.5699,105.765 27.9033,106.265 28.5,106.5C 28.5,106.833 28.5,107.167 28.5,107.5C 26.7748,107.843 26.2748,108.843 27,110.5C 27.3333,110.167 27.6667,109.833 28,109.5C 29.5998,110.866 31.4332,111.866 33.5,112.5C 30.2317,113.487 26.8984,113.82 23.5,113.5C 20.5537,113.897 17.887,114.897 15.5,116.5C 11.6273,114.57 7.29399,113.903 2.5,114.5C 1.24635,112.643 1.24635,110.643 2.5,108.5C 7.83333,107.833 13.1667,107.167 18.5,106.5C 21.6129,96.64 24.9463,86.9733 28.5,77.5C 29.8664,75.6495 31.533,75.3162 33.5,76.5C 29.8979,78.322 29.8979,79.322 33.5,79.5C 33.2627,80.791 33.596,81.791 34.5,82.5 Z"/></g>
<g><path style="opacity:0.71" fill="#abb9fa" d="M 190.5,102.5 C 192.027,102.427 193.027,103.094 193.5,104.5C 191.973,104.573 190.973,103.906 190.5,102.5 Z"/></g>
<g><path style="opacity:0.998" fill="#3c69f6" d="M 109.5,99.5 C 111.199,99.3398 112.866,99.5065 114.5,100C 114.167,100.333 113.833,100.667 113.5,101C 115.119,101.236 116.119,102.069 116.5,103.5C 109.861,108.139 104.194,113.806 99.5,120.5C 97.5976,119.489 95.5976,119.322 93.5,120C 94.5,120.333 95.5,120.667 96.5,121C 94.8333,121.333 93.1667,121.667 91.5,122C 91.8333,122.333 92.1667,122.667 92.5,123C 91.0993,123.41 89.766,123.91 88.5,124.5C 93.3822,114.412 100.382,106.078 109.5,99.5 Z"/></g>
<g><path style="opacity:0.997" fill="#3f5cf3" d="M 201.5,100.5 C 201.833,100.5 202.167,100.5 202.5,100.5C 206.146,102.482 209.146,105.149 211.5,108.5C 209.038,110.979 209.371,112.479 212.5,113C 210.926,113.353 209.259,114.02 207.5,115C 208.167,115.333 208.833,115.667 209.5,116C 208.748,116.671 208.414,117.504 208.5,118.5C 203.5,113.833 198.5,109.167 193.5,104.5C 193.027,103.094 192.027,102.427 190.5,102.5C 189.833,102.167 189.167,101.833 188.5,101.5C 187.89,100.609 187.557,99.609 187.5,98.5C 189.782,97.6103 192.115,97.4436 194.5,98C 196.397,101.303 198.064,101.136 199.5,97.5C 200.622,99.0436 200.289,100.377 198.5,101.5C 201.273,105.374 202.273,105.04 201.5,100.5 Z"/></g>
<g><path style="opacity:0.999" fill="#4b76f8" d="M 28.5,107.5 C 40.5185,107.168 52.5185,107.501 64.5,108.5C 65.7349,110.316 65.7349,111.983 64.5,113.5C 63.609,114.11 62.609,114.443 61.5,114.5C 48.6557,114.829 35.989,114.495 23.5,113.5C 26.8984,113.82 30.2317,113.487 33.5,112.5C 31.4332,111.866 29.5998,110.866 28,109.5C 27.6667,109.833 27.3333,110.167 27,110.5C 26.2748,108.843 26.7748,107.843 28.5,107.5 Z"/></g>
<g><path style="opacity:0.816" fill="#b9c5fb" d="M 211.5,108.5 C 212.906,108.973 213.573,109.973 213.5,111.5C 212.094,111.027 211.427,110.027 211.5,108.5 Z"/></g>
<g><path style="opacity:0.997" fill="#365af3" d="M 211.5,108.5 C 211.427,110.027 212.094,111.027 213.5,111.5C 214.167,112.167 214.833,112.833 215.5,113.5C 215.427,115.027 216.094,116.027 217.5,116.5C 217.66,118.153 218.326,119.486 219.5,120.5C 220.89,121.899 221.89,123.566 222.5,125.5C 222.402,127.553 223.069,129.22 224.5,130.5C 225.404,131.209 225.737,132.209 225.5,133.5C 224.778,133.082 224.278,132.416 224,131.5C 222.082,133.419 220.249,135.419 218.5,137.5C 215.453,131.075 212.12,124.741 208.5,118.5C 208.414,117.504 208.748,116.671 209.5,116C 208.833,115.667 208.167,115.333 207.5,115C 209.259,114.02 210.926,113.353 212.5,113C 209.371,112.479 209.038,110.979 211.5,108.5 Z"/></g>
<g><path style="opacity:0.996" fill="#bbc9fc" d="M 2.5,114.5 C 7.29399,113.903 11.6273,114.57 15.5,116.5C 11.8183,116.665 8.15159,116.499 4.5,116C 3.5842,115.722 2.91753,115.222 2.5,114.5 Z"/></g>
<g><path style="opacity:0.342" fill="#fdfdfe" d="M 64.5,113.5 C 64.4226,114.75 63.756,115.583 62.5,116C 49.257,115.879 36.257,116.712 23.5,118.5C 23.5,117.5 23.5,116.5 23.5,115.5C 36.3443,115.829 49.011,115.495 61.5,114.5C 62.609,114.443 63.609,114.11 64.5,113.5 Z"/></g>
<g><path style="opacity:0.482" fill="#d6dffd" d="M 215.5,113.5 C 216.906,113.973 217.573,114.973 217.5,116.5C 216.094,116.027 215.427,115.027 215.5,113.5 Z"/></g>
<g><path style="opacity:0.431" fill="#cad5fb" d="M 217.5,116.5 C 219.104,117.287 219.771,118.62 219.5,120.5C 218.326,119.486 217.66,118.153 217.5,116.5 Z"/></g>
<g><path style="opacity:0.492" fill="#e5eafd" d="M 23.5,118.5 C 22.2012,125.435 20.0345,132.102 17,138.5C 16.502,141.482 16.3354,144.482 16.5,147.5C 16.1667,147.5 15.8333,147.5 15.5,147.5C 15.335,144.15 15.5017,140.817 16,137.5C 18.5753,131.685 20.5753,125.685 22,119.5C 22.3826,118.944 22.8826,118.611 23.5,118.5 Z"/></g>
<g><path style="opacity:0.149" fill="#dae2fc" d="M 222.5,125.5 C 223.931,126.78 224.598,128.447 224.5,130.5C 223.069,129.22 222.402,127.553 222.5,125.5 Z"/></g>
<g><path style="opacity:0.98" fill="#e1e6fd" d="M 132.5,96.5 C 107.692,107.098 93.1916,125.765 89,152.5C 88.3642,159.856 88.5309,167.189 89.5,174.5C 88.8333,173.167 88.1667,171.833 87.5,170.5C 86.3208,157.063 88.1541,144.063 93,131.5C 94.6743,127.476 96.841,123.809 99.5,120.5C 104.194,113.806 109.861,108.139 116.5,103.5C 121.387,100.054 126.721,97.7208 132.5,96.5 Z"/></g>
<g><path style="opacity:0.996" fill="#6387fa" d="M 23.5,113.5 C 35.989,114.495 48.6557,114.829 61.5,114.5C 49.011,115.495 36.3443,115.829 23.5,115.5C 23.5,116.5 23.5,117.5 23.5,118.5C 22.8826,118.611 22.3826,118.944 22,119.5C 20.5753,125.685 18.5753,131.685 16,137.5C 15.5017,140.817 15.335,144.15 15.5,147.5C 13.2282,146.073 11.0615,144.406 9,142.5C 8.78997,144.058 8.28997,145.391 7.5,146.5C 8.73645,136.123 11.4031,126.123 15.5,116.5C 17.887,114.897 20.5537,113.897 23.5,113.5 Z"/></g>
<g><path style="opacity:0.257" fill="#d5dcfc" d="M 225.5,133.5 C 226.924,135.515 227.59,137.848 227.5,140.5C 226.076,138.485 225.41,136.152 225.5,133.5 Z"/></g>
<g><path style="opacity:0.996" fill="#4473f8" d="M 99.5,120.5 C 96.841,123.809 94.6743,127.476 93,131.5C 88.1541,144.063 86.3208,157.063 87.5,170.5C 86.6717,164.013 86.1717,157.346 86,150.5C 84.7012,150.034 83.2012,150.034 81.5,150.5C 81.7845,152.415 81.4511,154.081 80.5,155.5C 80.5,154.5 80.5,153.5 80.5,152.5C 81.0086,142.453 83.6753,133.12 88.5,124.5C 89.766,123.91 91.0993,123.41 92.5,123C 92.1667,122.667 91.8333,122.333 91.5,122C 93.1667,121.667 94.8333,121.333 96.5,121C 95.5,120.667 94.5,120.333 93.5,120C 95.5976,119.322 97.5976,119.489 99.5,120.5 Z"/></g>
<g><path style="opacity:0.998" fill="#2757f3" d="M 225.5,133.5 C 225.41,136.152 226.076,138.485 227.5,140.5C 228.34,149.138 228.673,157.805 228.5,166.5C 227.834,163.642 227.167,160.642 226.5,157.5C 225.522,157.023 224.689,156.357 224,155.5C 222.746,158.976 222.079,162.642 222,166.5C 221.536,165.906 221.369,165.239 221.5,164.5C 221.341,155.392 220.341,146.392 218.5,137.5C 220.249,135.419 222.082,133.419 224,131.5C 224.278,132.416 224.778,133.082 225.5,133.5 Z"/></g>
<g><path style="opacity:0.997" fill="#3260f5" d="M 198.5,134.5 C 198.617,136.484 197.95,138.15 196.5,139.5C 187.806,144.512 179.139,149.512 170.5,154.5C 164.969,153.632 164.635,152.798 169.5,152C 166.833,151.333 166.833,150.667 169.5,150C 167.264,149.921 165.93,149.421 165.5,148.5C 174.773,143.799 183.773,138.632 192.5,133C 194.989,132.059 196.989,132.559 198.5,134.5 Z"/></g>
<g><path style="opacity:0.464" fill="#ebeffd" d="M 198.5,134.5 C 199.942,136.817 199.608,138.984 197.5,141C 188.585,146.041 179.751,151.207 171,156.5C 171.838,170.497 165.338,176.83 151.5,175.5C 155.647,175.874 159.314,174.874 162.5,172.5C 165.112,171.723 166.945,170.056 168,167.5C 169.016,163.165 169.849,158.831 170.5,154.5C 179.139,149.512 187.806,144.512 196.5,139.5C 197.95,138.15 198.617,136.484 198.5,134.5 Z"/></g>
<g><path style="opacity:0.997" fill="#3b69f6" d="M 165.5,148.5 C 165.93,149.421 167.264,149.921 169.5,150C 166.833,150.667 166.833,151.333 169.5,152C 164.635,152.798 164.969,153.632 170.5,154.5C 169.849,158.831 169.016,163.165 168,167.5C 166.945,170.056 165.112,171.723 162.5,172.5C 159.089,169.653 155.756,167.986 152.5,167.5C 156.76,167.872 159.76,166.205 161.5,162.5C 161.631,161.624 161.298,160.957 160.5,160.5C 158.255,162.623 155.588,163.623 152.5,163.5C 150.623,162.341 150.123,160.674 151,158.5C 152.704,156.627 154.537,154.96 156.5,153.5C 155.324,152.365 153.324,152.199 150.5,153C 148.859,154.129 147.859,155.629 147.5,157.5C 146.698,158.952 146.198,160.618 146,162.5C 144.667,161.833 143.333,161.167 142,160.5C 141.544,159.256 142.044,158.423 143.5,158C 142.072,157.421 140.738,157.588 139.5,158.5C 141.49,147.325 148.156,142.825 159.5,145C 161.879,145.716 163.879,146.883 165.5,148.5 Z"/></g>
<g><path style="opacity:0.684" fill="#f6f7fd" d="M 156.5,153.5 C 152.285,153.061 149.285,154.727 147.5,158.5C 147.5,158.167 147.5,157.833 147.5,157.5C 147.859,155.629 148.859,154.129 150.5,153C 153.324,152.199 155.324,152.365 156.5,153.5 Z"/></g>
<g><path style="opacity:0.998" fill="#7693fb" d="M 15.5,147.5 C 15.8333,147.5 16.1667,147.5 16.5,147.5C 18.3124,150.81 20.9791,153.31 24.5,155C 42.6713,155.168 60.6713,155.668 78.5,156.5C 61.4967,156.333 44.4967,156.5 27.5,157C 34.8333,157.333 42.1667,157.667 49.5,158C 48.1667,158.333 46.8333,158.667 45.5,159C 46.3247,160.688 47.3247,160.855 48.5,159.5C 49.9374,162.044 51.4374,162.044 53,159.5C 54.3103,160.897 55.8103,161.897 57.5,162.5C 47.1613,162.334 36.828,162.5 26.5,163C 44.3381,163.168 62.0047,163.668 79.5,164.5C 60.4238,164.82 41.4238,164.487 22.5,163.5C 20.3374,161.917 18.0041,160.584 15.5,159.5C 11.0691,156.315 8.40241,151.981 7.5,146.5C 8.28997,145.391 8.78997,144.058 9,142.5C 11.0615,144.406 13.2282,146.073 15.5,147.5 Z"/></g>
<g><path style="opacity:0.997" fill="#557ef9" d="M 80.5,152.5 C 80.5,153.5 80.5,154.5 80.5,155.5C 80.4142,156.496 80.7476,157.329 81.5,158C 79.2262,158.47 77.2262,159.47 75.5,161C 75.8333,161.333 76.1667,161.667 76.5,162C 70.1754,162.5 63.8421,162.666 57.5,162.5C 55.8103,161.897 54.3103,160.897 53,159.5C 51.4374,162.044 49.9374,162.044 48.5,159.5C 47.3247,160.855 46.3247,160.688 45.5,159C 46.8333,158.667 48.1667,158.333 49.5,158C 42.1667,157.667 34.8333,157.333 27.5,157C 44.4967,156.5 61.4967,156.333 78.5,156.5C 79.1667,155.167 79.8333,153.833 80.5,152.5 Z"/></g>
<g><path style="opacity:0.047" fill="#dce3fe" d="M 15.5,159.5 C 18.0041,160.584 20.3374,161.917 22.5,163.5C 19.3855,163.445 17.0522,162.112 15.5,159.5 Z"/></g>
<g><path style="opacity:0.996" fill="#768ffa" d="M 87.5,170.5 C 88.1667,171.833 88.8333,173.167 89.5,174.5C 90.1667,176.5 90.8333,178.5 91.5,180.5C 112.758,181.499 134.758,181.833 157.5,181.5C 157.082,182.222 156.416,182.722 155.5,183C 157.5,184 159.5,185 161.5,186C 136.167,186.333 110.833,186.667 85.5,187C 114.831,187.5 144.165,187.667 173.5,187.5C 189.833,187.5 206.167,187.5 222.5,187.5C 222.5,187.833 222.5,188.167 222.5,188.5C 177.335,189.665 132.002,189.831 86.5,189C 84.4616,187.764 83.2949,185.931 83,183.5C 81.1852,177.277 80.0186,170.944 79.5,164.5C 62.0047,163.668 44.3381,163.168 26.5,163C 36.828,162.5 47.1613,162.334 57.5,162.5C 63.8421,162.666 70.1754,162.5 76.5,162C 76.1667,161.667 75.8333,161.333 75.5,161C 77.2262,159.47 79.2262,158.47 81.5,158C 80.7476,157.329 80.4142,156.496 80.5,155.5C 81.4511,154.081 81.7845,152.415 81.5,150.5C 83.2012,150.034 84.7012,150.034 86,150.5C 86.1717,157.346 86.6717,164.013 87.5,170.5 Z"/></g>
<g><path style="opacity:0.708" fill="#eef1fd" d="M 161.5,162.5 C 159.393,163.3 157.226,163.967 155,164.5C 153.93,164.472 153.097,164.139 152.5,163.5C 155.588,163.623 158.255,162.623 160.5,160.5C 161.298,160.957 161.631,161.624 161.5,162.5 Z"/></g>
<g><path style="opacity:0.983" fill="#2e5ff4" d="M 228.5,166.5 C 228.089,173.055 226.756,179.388 224.5,185.5C 222.363,184.213 220.03,183.379 217.5,183C 218.833,182.333 220.167,181.667 221.5,181C 220.552,180.517 219.552,180.351 218.5,180.5C 219.302,175.003 220.302,169.67 221.5,164.5C 221.369,165.239 221.536,165.906 222,166.5C 222.079,162.642 222.746,158.976 224,155.5C 224.689,156.357 225.522,157.023 226.5,157.5C 227.167,160.642 227.834,163.642 228.5,166.5 Z"/></g>
<g><path style="opacity:0.997" fill="#4e74f7" d="M 147.5,157.5 C 147.5,157.833 147.5,158.167 147.5,158.5C 147.884,162.272 149.55,165.272 152.5,167.5C 155.756,167.986 159.089,169.653 162.5,172.5C 159.314,174.874 155.647,175.874 151.5,175.5C 150.209,175.737 149.209,175.404 148.5,174.5C 147.486,173.326 146.153,172.66 144.5,172.5C 140.055,168.672 138.388,164.005 139.5,158.5C 140.738,157.588 142.072,157.421 143.5,158C 142.044,158.423 141.544,159.256 142,160.5C 143.333,161.167 144.667,161.833 146,162.5C 146.198,160.618 146.698,158.952 147.5,157.5 Z"/></g>
<g><path style="opacity:0.502" fill="#cfd8fc" d="M 144.5,172.5 C 146.153,172.66 147.486,173.326 148.5,174.5C 146.62,174.771 145.287,174.104 144.5,172.5 Z"/></g>
<g><path style="opacity:0.486" fill="#dae1fc" d="M 227.5,140.5 C 231.089,155.445 230.589,170.445 226,185.5C 225.578,187.426 224.411,188.426 222.5,188.5C 222.5,188.167 222.5,187.833 222.5,187.5C 223.5,187.167 224.167,186.5 224.5,185.5C 226.756,179.388 228.089,173.055 228.5,166.5C 228.673,157.805 228.34,149.138 227.5,140.5 Z"/></g>
<g><path style="opacity:0.999" fill="#2a61f5" d="M 91.5,180.5 C 133.833,180.5 176.167,180.5 218.5,180.5C 219.552,180.351 220.552,180.517 221.5,181C 220.167,181.667 218.833,182.333 217.5,183C 220.03,183.379 222.363,184.213 224.5,185.5C 224.167,186.5 223.5,187.167 222.5,187.5C 206.167,187.5 189.833,187.5 173.5,187.5C 182.658,186.67 191.991,186.17 201.5,186C 200.167,185.667 198.833,185.333 197.5,185C 198.167,184.667 198.833,184.333 199.5,184C 198.167,183.667 196.833,183.333 195.5,183C 196.167,182.667 196.833,182.333 197.5,182C 184.171,181.5 170.837,181.333 157.5,181.5C 134.758,181.833 112.758,181.499 91.5,180.5 Z"/></g>
<g><path style="opacity:1" fill="#6188fb" d="M 64.5,183.5 C 47.2436,184.485 29.9102,184.819 12.5,184.5C 11.0584,182.183 11.3918,180.016 13.5,178C 30.1667,177.333 46.8333,177.333 63.5,178C 65.2912,179.79 65.6246,181.623 64.5,183.5 Z"/></g>
<g><path style="opacity:0.998" fill="#396af7" d="M 157.5,181.5 C 170.837,181.333 184.171,181.5 197.5,182C 196.833,182.333 196.167,182.667 195.5,183C 196.833,183.333 198.167,183.667 199.5,184C 198.833,184.333 198.167,184.667 197.5,185C 198.833,185.333 200.167,185.667 201.5,186C 191.991,186.17 182.658,186.67 173.5,187.5C 144.165,187.667 114.831,187.5 85.5,187C 110.833,186.667 136.167,186.333 161.5,186C 159.5,185 157.5,184 155.5,183C 156.416,182.722 157.082,182.222 157.5,181.5 Z"/></g>
<g><path style="opacity:1" fill="#aebcfd" d="M 64.5,183.5 C 64.4226,184.75 63.756,185.583 62.5,186C 46.5,186.667 30.5,186.667 14.5,186C 13.5842,185.722 12.9175,185.222 12.5,184.5C 29.9102,184.819 47.2436,184.485 64.5,183.5 Z"/></g>
<g><path style="opacity:0.997" fill="#5981fa" d="M 122.5,199.5 C 122.5,201.5 122.5,203.5 122.5,205.5C 104.5,205.5 86.5,205.5 68.5,205.5C 68.317,203.064 68.9837,200.897 70.5,199C 87.9071,198.182 105.24,198.348 122.5,199.5 Z"/></g>
<g><path style="opacity:0.997" fill="#4a76f8" d="M 157.5,199.5 C 157.5,201.5 157.5,203.5 157.5,205.5C 149.5,205.5 141.5,205.5 133.5,205.5C 132.855,202.453 133.855,200.287 136.5,199C 143.58,198.205 150.58,198.372 157.5,199.5 Z"/></g>
<g><path style="opacity:1" fill="#cbd5fd" d="M 122.5,199.5 C 124.512,201.208 124.846,203.208 123.5,205.5C 123.167,205.5 122.833,205.5 122.5,205.5C 122.5,203.5 122.5,201.5 122.5,199.5 Z"/></g>
<g><path style="opacity:0.996" fill="#c8d1fc" d="M 157.5,199.5 C 159.512,201.208 159.846,203.208 158.5,205.5C 158.167,205.5 157.833,205.5 157.5,205.5C 157.5,203.5 157.5,201.5 157.5,199.5 Z"/></g>
</svg>
